
<svg width="50px" height="39px" viewBox="0 0 50 39" version="1.1" xmlns="http://www.w3.org/2000/svg" xmlns:xlink="http://www.w3.org/1999/xlink">
    <g id="Page-1" stroke="none" stroke-width="1" fill="none" fill-rule="evenodd">
        <g id="crown" fill="#000000" fill-rule="nonzero">
            <g id="Group" transform="translate(25.000000, 19.500000) scale(-1, 1) rotate(-180.000000) translate(-25.000000, -19.500000) ">
                <path d="M41.9014085,37.2272727 C40.8450704,35.4545455 39.8591549,32.0272727 39.084507,27.0045455 C38.6619718,24.5227273 38.5211268,24.2863636 37.3239437,24.8181818 C35,25.8818182 30.6338028,25.5272727 28.4507042,24.1090909 C24.7887324,21.6863636 23.3098592,19.6181818 21.4084507,14.2409091 C21.1267606,13.5909091 20.8450704,13.5909091 19.8591549,14.3590909 C19.1549296,14.8909091 16.4084507,16.3090909 13.7323944,17.55 C8.02816901,20.2090909 6.76056338,21.5090909 8.73239437,22.8090909 C11.7605634,24.6409091 16.1267606,23.2818182 15.1408451,20.6818182 C14.7887324,19.7954545 15,19.5 15.9859155,19.5 C17.8169014,19.5 19.0140845,20.6227273 19.0140845,22.4545455 C19.0140845,25.2909091 17.5352113,26.1772727 12.4647887,26.4727273 C8.02816901,26.7090909 7.67605634,26.65 5.63380282,24.9363636 C1.69014085,21.6272727 3.02816901,18.7318182 10,15.3045455 C12.8169014,13.9454545 15.8450704,12.1727273 16.6901408,11.4636364 C21.6197183,7.26818182 13.8028169,1.47727273 7.11267606,4.37272727 C4.36619718,5.61363636 3.38028169,7.56363636 3.94366197,10.6954545 C4.36619718,12.7636364 4.22535211,13 2.88732394,13 C1.05633803,13 0,10.9909091 0,7.50454545 C0,2.83636364 3.66197183,0.590909091 11.2676056,0.590909091 C15.7042254,0.590909091 17.6056338,1.12272727 20.1408451,3.07272727 C21.6197183,4.19545455 21.6901408,4.19545455 23.6619718,2.48181818 C27.4647887,-0.65 34.7887324,-0.472727273 38.8028169,2.95454545 C40.7746479,4.55 40.7746479,4.55 41.2676056,3.30909091 C41.9014085,1.65454545 43.6619718,0 44.9295775,0 C46.3380282,0 50,3.48636364 50,4.84545455 C50,6.08636364 50,6.08636364 45.6338028,4.90454545 C44.0140845,4.49090909 43.1690141,8.33181818 44.2957746,11.5227273 C47.3239437,20.3863636 48.028169,23.4 48.3802817,29.6045455 C48.8732394,37.4636364 48.3098592,39 45.0704225,39 C43.4507042,39 42.7464789,38.5863636 41.9014085,37.2272727 Z M37.1830986,19.4409091 C40.1408451,14.4181818 39.0140845,6.67727273 35,4.43181818 C32.3943662,3.01363636 28.943662,3.48636364 27.1830986,5.49545455 C25.0704225,7.85909091 25.2112676,14.0636364 27.3943662,17.6090909 C30.915493,23.4 34.4366197,24.05 37.1830986,19.4409091 Z" id="Shape"></path>
            </g>
        </g>
    </g>
</svg>